<?xml version="1.0" encoding="iso-8859-1"?>
<!-- Generator: Adobe Illustrator 19.0.0, SVG Export Plug-In . SVG Version: 6.00 Build 0)  -->
<svg version="1.1" id="Layer_1" xmlns="http://www.w3.org/2000/svg" xmlns:xlink="http://www.w3.org/1999/xlink" x="0px" y="0px"
	 viewBox="0 0 495.2 495.2" style="enable-background:new 0 0 495.2 495.2;" xml:space="preserve">
<ellipse transform="matrix(0.7071 -0.7071 0.7071 0.7071 -329.6432 153.3612)" style="fill:#545354;" cx="20.302" cy="474.595" rx="5.6" ry="24.8"/>
<g>
	<path style="fill:#EF296B;" d="M124.4,309.2c-2.4,2.4-5.6,2.4-7.2,0l-70.4-69.6c-2.4-2.4-2.4-5.6,0-7.2l0,0c2.4-2.4,5.6-2.4,7.2,0
		l69.6,69.6C126.8,303.6,126.8,306.8,124.4,309.2L124.4,309.2z"/>
	<path style="fill:#EF296B;" d="M263.6,448.4c-2.4,2.4-5.6,2.4-7.2,0l-69.6-69.6c-2.4-2.4-2.4-5.6,0-7.2l0,0c2.4-2.4,5.6-2.4,7.2,0
		l69.6,69.6C265.2,442.8,265.2,446,263.6,448.4L263.6,448.4z"/>
</g>
<g>
	<path style="fill:#C40033;" d="M124.4,309.2c-0.8,0.8-3.2-0.8-4.8-2.4L50,237.2c-2.4-2.4-3.2-4.8-3.2-5.6l0,0
		c0.8,0,3.2,0.8,5.6,3.2l69.6,69.6C123.6,306,125.2,308.4,124.4,309.2L124.4,309.2z"/>
	<path style="fill:#C40033;" d="M263.6,448.4c-0.8,0.8-3.2-0.8-4.8-2.4l-70.4-70.4c-2.4-2.4-3.2-4-2.4-4.8l0,0
		c0.8-0.8,3.2,0.8,4.8,2.4l69.6,69.6C262.8,445.2,263.6,447.6,263.6,448.4L263.6,448.4z"/>
</g>
<path style="fill:#EF296B;" d="M182,336.4c-4.8,4.8-13.6,4.8-18.4,0l-4.8-4.8c-4.8-4.8-4.8-13.6,0-18.4L469.2,3.6
	c4.8-4.8,13.6-4.8,18.4,0l4,4c4.8,4.8,4.8,13.6,0,18.4L182,336.4z"/>
<path style="fill:#C40033;" d="M176.4,331.6c-4.8,4.8-11.2,7.2-14.4,4l-2.4-3.2c-3.2-3.2-0.8-9.6,4-14.4L474,8.4
	c4.8-4.8,11.2-7.2,14.4-4l2.4,2.4c3.2,3.2,0.8,9.6-4,14.4L176.4,331.6z"/>
<path style="fill:#545354;" d="M202,386.8c-3.2,3.2-4,8-7.2,4.8l-91.2-92c-3.2-3.2,1.6-4,4.8-7.2l0,0c3.2-3.2,4-8,7.2-4.8l92,92
	C210,383.6,205.2,383.6,202,386.8L202,386.8z"/>
<path style="fill:#686768;" d="M206.8,380.4l-92-92c0-0.8-0.8-0.8-1.6-0.8l-0.8,0.8c-0.8,0.8-1.6,1.6-2.4,2.4s-0.8,1.6-2.4,2.4
	l-0.8,0.8c0,0.8,0,0.8,0.8,1.6l92,91.2c0.8,0.8,0.8,0.8,1.6,0.8l0.8-0.8c0.8-0.8,1.6-1.6,2.4-1.6c0.8-0.8,0.8-1.6,1.6-2.4l0.8-0.8
	C207.6,381.2,207.6,380.4,206.8,380.4z"/>
<path style="fill:#7C7C7C;" d="M206.8,382.8l0.8-0.8c0-0.8,0-0.8-0.8-1.6l-92-92c0-0.8-0.8-0.8-1.6-0.8l-0.8,0.8l-0.8,0.8l-0.8,0.8
	l-0.8,0.8c0,0.8,0,0.8,0.8,1.6l92,92c0.8,0.8,0.8,0.8,1.6,0.8l0.8-0.8l0.8-0.8C206,383.6,206.8,382.8,206.8,382.8z"/>
<path id="SVGCleanerId_0" style="fill:#7C7C7C;" d="M108.4,412.4c-4.8,4.8-13.6,4.8-18.4,0l-7.2-7.2c-4.8-4.8-4.8-13.6,0-18.4
	l50.4-50.4c4.8-4.8,13.6-4.8,18.4,0l7.2,7.2c4.8,4.8,4.8,13.6,0,18.4L108.4,412.4z"/>
<g>
	<path id="SVGCleanerId_0_1_" style="fill:#7C7C7C;" d="M108.4,412.4c-4.8,4.8-13.6,4.8-18.4,0l-7.2-7.2c-4.8-4.8-4.8-13.6,0-18.4
		l50.4-50.4c4.8-4.8,13.6-4.8,18.4,0l7.2,7.2c4.8,4.8,4.8,13.6,0,18.4L108.4,412.4z"/>
</g>
<path style="fill:#939393;" d="M86,390l50.4-50.4c4.8-4.8,13.6-4.8,18.4,0l4.8,4l0,0l-8-7.2c-4.8-4.8-13.6-4.8-18.4,0l-50.4,50.4
	c-4.8,4.8-4.8,13.6,0,18.4l3.2,3.2C81.2,403.6,81.2,395.6,86,390z"/>
<path style="fill:#686768;" d="M133.2,336.4c4.8-4.8,13.6-4.8,18.4,0l7.2,7.2c4.8,4.8,4.8,13.6,0,18.4l-50.4,50.4
	c-4.8,4.8-13.6,4.8-18.4,0"/>
<path style="fill:#545354;" d="M133.2,336.4c4.8-4.8,13.6-4.8,18.4,0l7.2,7.2c4.8,4.8,4.8,13.6,0,18.4l-23.2,23.2"/>
<path style="fill:#7C7C7C;" d="M50.8,480.4c-4.8,4.8-13.6,4.8-18.4,0l-17.6-17.6c-4.8-4.8-4.8-13.6,0-18.4L46,413.2
	c4.8-4.8,8.8-9.6,23.2-13.6L95.6,426c-4,14.4-8.8,17.6-13.6,23.2L50.8,480.4z"/>
<path style="fill:#686768;" d="M46,413.2c4.8-4.8,8.8-9.6,23.2-13.6L95.6,426c-4,14.4-8.8,17.6-13.6,23.2l-31.2,31.2
	c-4.8,4.8-13.6,4.8-18.4,0"/>
<path style="fill:#545354;" d="M46,413.2c4.8-4.8,8.8-9.6,23.2-13.6L95.6,426c-4,14.4-8.8,17.6-13.6,23.2l-17.6,17.6"/>
<path style="fill:#7C7C7C;" d="M43.6,494c-1.6,1.6-4.8,1.6-6.4,0l-36-36c-1.6-1.6-1.6-4.8,0-6.4l6.4-6.4c1.6-1.6,4.8-1.6,6.4,0
	l36,36c1.6,1.6,1.6,4.8,0,6.4L43.6,494z"/>
<g>
	<path style="fill:#686768;" d="M50,487.6l-6.4,6.4c-1.6,1.6-4.8,1.6-6.4,0l-36-36c-1.6-1.6-1.6-4.8,0-6.4l6.4-6.4"/>
	<path style="fill:#686768;" d="M97.2,426.8c-0.8,0.8-2.4,0.8-3.2,0l-25.6-25.6c-0.8-0.8-0.8-2.4,0-3.2l4-4c0.8-0.8,2.4-0.8,3.2,0
		l25.6,25.6c0.8,0.8,0.8,2.4,0,3.2L97.2,426.8z"/>
</g>
<path style="fill:#545354;" d="M103.6,420.4c-0.8,0.8-2.4,0.8-3.2,0l-25.6-25.6c-0.8-0.8-0.8-2.4,0-3.2l4-4c0.8-0.8,2.4-0.8,3.2,0
	l25.6,25.6c0.8,0.8,0.8,2.4,0,3.2L103.6,420.4z"/>
<path style="fill:#494948;" d="M169.2,361.2c-4.8,4.8-12.8,4.8-18.4,0L134,344.4c-4.8-4.8-4.8-13.6,0-18.4l7.2-7.2
	c4.8-4.8,13.6-4.8,18.4,0l16.8,16.8c4.8,4.8,4.8,13.6,0,18.4L169.2,361.2z"/>
<path style="fill:#686768;" d="M182.8,342.8c-1.6,1.6-4,1.6-5.6,0l-25.6-25.6c-1.6-1.6-1.6-4,0-5.6l0.8-0.8c1.6-1.6,4-1.6,5.6,0
	l25.6,25.6c1.6,1.6,1.6,4,0,5.6L182.8,342.8z"/>
<path style="fill:#7C7C7C;" d="M177.2,330l-18.4-18.4c-1.6-1.6-4-1.6-5.6,0l-0.8,0.8c-1.6,1.6-1.6,4,0,5.6l18.4,18.4
	c1.6,1.6,4,1.6,5.6,0l0.8-0.8C178.8,333.2,178.8,331.6,177.2,330z"/>
<path style="fill:#686768;" d="M100.4,302c-1.6-1.6-1.6-4,0-5.6l12-12c1.6-1.6,4-1.6,5.6,0l0.8,0.8c1.6,1.6,1.6,4,0,5.6l-12,12
	c-1.6,1.6-4,1.6-5.6,0L100.4,302z"/>
<path style="fill:#7C7C7C;" d="M103.6,300.4l12-12c0.8-0.8,1.6-2.4,0.8-4c-1.6-0.8-3.2,0-4,0.8l-12,12c-0.8,0.8-1.6,2.4-0.8,4
	C101.2,301.2,102.8,301.2,103.6,300.4z"/>
<path style="fill:#686768;" d="M192.4,394c-1.6-1.6-1.6-4,0-5.6l12-12c1.6-1.6,4-1.6,5.6,0l0.8,0.8c1.6,1.6,1.6,4,0,4.8l-12,12
	c-1.6,1.6-4,1.6-5.6,0L192.4,394z"/>
<path style="fill:#7C7C7C;" d="M195.6,392.4l12-12c0.8-0.8,1.6-2.4,0.8-4c-1.6-0.8-3.2,0-4,0.8l-12,12c-0.8,0.8-1.6,2.4-0.8,4
	C192.4,393.2,194,393.2,195.6,392.4z"/>
<path style="fill:#424042;" d="M78.8,426.8c-3.2,3.2-12.8,8.8-16,5.6c-3.2-3.2,3.2-12.8,5.6-16c3.2-3.2,7.2-3.2,10.4,0
	C82,419.6,82,423.6,78.8,426.8z"/>
<circle style="fill:#EF296B;" cx="74" cy="422" r="7.2"/>
<path style="fill:#DD1B65;" d="M74,414c4,0,7.2,3.2,7.2,7.2s-3.2,7.2-7.2,7.2"/>
<g>
	<path style="fill:#686768;" d="M150.8,322.8c0.8,0.8,0.8,0.8,0,1.6l-11.2,11.2c-0.8,0.8-0.8,0.8-1.6,0l0,0c-0.8-0.8-0.8-0.8,0-1.6
		l11.2-11.2C149.2,322.8,150,322.8,150.8,322.8L150.8,322.8z"/>
	<path style="fill:#686768;" d="M155.6,328.4c0.8,0.8,0.8,0.8,0,1.6l-11.2,11.2c-0.8,0.8-0.8,0.8-1.6,0l0,0c-0.8-0.8-0.8-0.8,0-1.6
		l11.2-11.2C154.8,327.6,155.6,327.6,155.6,328.4L155.6,328.4z"/>
	<path style="fill:#686768;" d="M161.2,334c0.8,0.8,0.8,0.8,0,1.6L150,346.8c-0.8,0.8-0.8,0.8-1.6,0l0,0c-0.8-0.8-0.8-0.8,0-1.6
		l11.2-11.2C160.4,333.2,161.2,333.2,161.2,334L161.2,334z"/>
	<path style="fill:#686768;" d="M166.8,339.6c0.8,0.8,0.8,0.8,0,1.6l-11.2,10.4c-0.8,0.8-0.8,0.8-1.6,0l0,0c-0.8-0.8-0.8-0.8,0-1.6
		l11.2-11.2C166,338.8,166.8,338.8,166.8,339.6L166.8,339.6z"/>
	<path style="fill:#686768;" d="M172.4,344.4c0.8,0.8,0.8,0.8,0,1.6l-11.2,11.2c-0.8,0.8-0.8,0.8-1.6,0l0,0c-0.8-0.8-0.8-0.8,0-1.6
		l11.2-11.2C171.6,344.4,171.6,344.4,172.4,344.4L172.4,344.4z"/>
</g>
<g>
</g>
<g>
</g>
<g>
</g>
<g>
</g>
<g>
</g>
<g>
</g>
<g>
</g>
<g>
</g>
<g>
</g>
<g>
</g>
<g>
</g>
<g>
</g>
<g>
</g>
<g>
</g>
<g>
</g>
</svg>
